<svg width="15" height="12" viewBox="0 0 15 12" fill="none" xmlns="http://www.w3.org/2000/svg">
<path d="M14.4688 6.21191C14.4688 6.39746 14.3955 6.56104 14.249 6.70264L9.37842 11.5586C9.23682 11.6953 9.07812 11.7637 8.90234 11.7637C8.72168 11.7637 8.57031 11.7026 8.44824 11.5806C8.32617 11.4634 8.26514 11.3145 8.26514 11.1338C8.26514 11.0459 8.27979 10.9629 8.30908 10.8848C8.33838 10.8018 8.38232 10.731 8.44092 10.6724L10.0815 9.00244L12.9893 6.3584L13.1357 6.71729L10.7773 6.86377H1.51221C1.32178 6.86377 1.16553 6.80273 1.04346 6.68066C0.92627 6.55859 0.867676 6.40234 0.867676 6.21191C0.867676 6.02148 0.92627 5.86523 1.04346 5.74316C1.16553 5.62109 1.32178 5.56006 1.51221 5.56006H10.7773L13.1357 5.70654L12.9893 6.07275L10.0815 3.42139L8.44092 1.75146C8.38232 1.69287 8.33838 1.62451 8.30908 1.54639C8.27979 1.46338 8.26514 1.37793 8.26514 1.29004C8.26514 1.10937 8.32617 0.960449 8.44824 0.843262C8.57031 0.721191 8.72168 0.660156 8.90234 0.660156C8.99023 0.660156 9.07324 0.677246 9.15137 0.711426C9.23438 0.745605 9.31494 0.801758 9.39307 0.879883L14.249 5.72119C14.3955 5.86279 14.4688 6.02637 14.4688 6.21191Z" fill="white"/>
</svg>
