<svg width="26" height="24" viewBox="0 0 26 24" fill="none" xmlns="http://www.w3.org/2000/svg">
<path fill-rule="evenodd" clip-rule="evenodd" d="M12.7165 0C5.91879 0 0.412964 5.50583 0.412964 12.3035C0.412964 17.7478 3.93485 22.3463 8.8255 23.9765C9.44068 24.0842 9.67137 23.715 9.67137 23.3921C9.67137 23.0999 9.65599 22.131 9.65599 21.1005C6.56473 21.6696 5.765 20.347 5.51893 19.6549C5.38051 19.3012 4.78072 18.2092 4.25782 17.917C3.82719 17.6863 3.21202 17.1173 4.24244 17.1019C5.21134 17.0865 5.90341 17.9939 6.1341 18.363C7.24142 20.2239 9.01005 19.701 9.71751 19.3781C9.82516 18.5783 10.1481 18.04 10.5019 17.7325C7.76432 17.4249 4.90375 16.3637 4.90375 11.6576C4.90375 10.3196 5.38051 9.21226 6.16486 8.35102C6.04183 8.04343 5.6112 6.78232 6.2879 5.09058C6.2879 5.09058 7.31832 4.76762 9.67137 6.3517C10.6556 6.07487 11.7014 5.93645 12.7472 5.93645C13.793 5.93645 14.8388 6.07487 15.8231 6.3517C18.1762 4.75224 19.2066 5.09058 19.2066 5.09058C19.8833 6.78232 19.4527 8.04343 19.3296 8.35102C20.114 9.21226 20.5907 10.3042 20.5907 11.6576C20.5907 16.3791 17.7148 17.4249 14.9773 17.7325C15.4233 18.1169 15.8078 18.8552 15.8078 20.0086C15.8078 21.6542 15.7924 22.9768 15.7924 23.3921C15.7924 23.715 16.0231 24.0995 16.6382 23.9765C21.4981 22.3463 25.02 17.7325 25.02 12.3035C25.02 5.50583 19.5142 0 12.7165 0Z" fill="#636363"/>
</svg>
