<svg width="176" height="20" viewBox="0 0 176 20" fill="none" xmlns="http://www.w3.org/2000/svg">
<path d="M6.22226 3.04332C6.30189 3.09905 6.36776 3.1511 6.43813 3.21644C6.47701 3.25099 6.51593 3.2855 6.55488 3.31997C6.58333 3.34549 6.58333 3.34549 6.61236 3.37152C6.68733 3.43755 6.76549 3.49908 6.84422 3.56056C6.98915 3.67533 7.12573 3.79741 7.26221 3.92204C7.38577 4.03199 7.51421 4.13544 7.64333 4.23876C7.85401 4.41478 7.85401 4.41478 7.88792 4.52156C7.89642 4.71485 7.8602 4.81253 7.72909 4.95624C7.67138 5.01395 7.61367 5.07166 7.55596 5.12937C7.50532 5.19001 7.45545 5.25129 7.40635 5.31318C7.28048 5.46888 7.1481 5.61614 7.01183 5.7626C6.8818 5.90318 6.76112 6.05006 6.64104 6.19925C6.56121 6.29574 6.47806 6.38804 6.39324 6.48017C6.25256 6.63303 6.12066 6.79104 5.99022 6.95266C5.89174 7.07198 5.78771 7.18567 5.68351 7.29998C5.60459 7.38879 5.52957 7.47991 5.45495 7.57236C5.32292 7.73561 5.18353 7.89027 5.04137 8.04471C4.95887 8.13661 4.8806 8.23073 4.80306 8.32684C4.6718 8.48953 4.53303 8.64344 4.39149 8.79719C4.30969 8.88832 4.23221 8.98167 4.15544 9.07705C4.04341 9.2161 3.92653 9.3483 3.80492 9.47887C3.58762 9.69782 3.58762 9.69782 3.41806 9.95122C3.43508 10.2281 3.81128 10.5222 3.99632 10.7212C4.1264 10.8618 4.24708 11.0087 4.36717 11.1579C4.447 11.2544 4.53016 11.3467 4.61497 11.4388C4.75565 11.5917 4.88756 11.7497 5.018 11.9113C5.11651 12.0307 5.22059 12.1444 5.32484 12.2588C5.40306 12.3468 5.47728 12.4371 5.55113 12.5289C5.67702 12.6846 5.80942 12.8319 5.94572 12.9784C6.07503 13.1181 6.19479 13.2643 6.31416 13.4127C6.40007 13.516 6.48982 13.6146 6.58133 13.713C6.72733 13.8698 6.86372 14.0322 6.99811 14.1992C7.09893 14.3204 7.20562 14.4354 7.31304 14.5508C7.4478 14.6964 7.57316 14.8479 7.69703 15.003C7.75698 15.0798 7.75698 15.0798 7.81992 15.1335C7.89483 15.2189 7.88186 15.3047 7.87763 15.4136C7.85501 15.54 7.78452 15.6136 7.69275 15.6964C7.67327 15.7141 7.65378 15.7319 7.63371 15.7501C7.58872 15.7899 7.54331 15.8292 7.49758 15.8682C7.40911 15.9445 7.32339 16.0234 7.2375 16.1025C7.0838 16.2427 6.92604 16.376 6.76421 16.5066C6.62234 16.6216 6.4828 16.7393 6.34302 16.8569C6.17323 16.9955 6.17323 16.9955 6.06196 16.9981C5.74406 16.8961 5.51553 16.555 5.29892 16.312C5.27781 16.2883 5.25669 16.2647 5.23494 16.2404C5.09874 16.0862 4.96639 15.9287 4.83371 15.7716C4.66515 15.5719 4.49505 15.3737 4.32484 15.1754C4.23911 15.0756 4.15346 14.9756 4.06781 14.8757C4.03361 14.8358 3.99942 14.7959 3.96522 14.756C3.89682 14.6762 3.82843 14.5964 3.76003 14.5166C3.7431 14.4968 3.72616 14.4771 3.70871 14.4567C3.67459 14.4169 3.64048 14.3771 3.60637 14.3373C3.51973 14.2362 3.43299 14.1351 3.34606 14.0342C3.18907 13.8519 3.03308 13.6691 2.88158 13.4821C2.76018 13.3325 2.63303 13.1895 2.50327 13.0472C2.3966 12.9272 2.29646 12.8022 2.1955 12.6774C2.09642 12.5577 1.992 12.4434 1.88732 12.3286C1.8098 12.2414 1.73638 12.1518 1.6633 12.0608C1.53029 11.8962 1.38921 11.7416 1.24469 11.5873C1.1098 11.4424 0.984397 11.2916 0.860456 11.1372C0.781108 11.041 0.698303 10.9492 0.61386 10.8575C0.4465 10.6755 0.288645 10.4869 0.135094 10.2932C0.116006 10.2705 0.0969185 10.2478 0.0772523 10.2244C0.0038728 10.1129 -0.00241161 10.0213 0.000574981 9.88951C0.0658298 9.66617 0.25796 9.51676 0.420664 9.35826C0.497748 9.28065 0.565385 9.19707 0.633096 9.11125C0.746633 8.96938 0.865915 8.83552 0.990033 8.70301C1.14391 8.53868 1.28861 8.36953 1.42966 8.19392C1.50295 8.10461 1.57904 8.01894 1.65688 7.93357C1.7634 7.8167 1.86521 7.69743 1.96466 7.57449C2.08813 7.42188 2.21719 7.27605 2.34939 7.13099C2.42902 7.04141 2.50483 6.94953 2.58022 6.85635C2.67967 6.73341 2.78149 6.61414 2.888 6.49727C2.99137 6.38374 3.09062 6.26823 3.18722 6.14888C3.36557 5.92866 3.55188 5.7157 3.73793 5.502C3.8773 5.34147 4.01521 5.17967 4.15341 5.01813C4.20573 4.95707 4.25818 4.89613 4.31067 4.83522C4.46641 4.65431 4.62114 4.47311 4.771 4.28726C4.89459 4.13484 5.02524 3.99016 5.1589 3.84665C5.26442 3.73269 5.36396 3.61539 5.46136 3.4943C5.89413 2.95856 5.89413 2.95856 6.22226 3.04332Z" fill="#030303"/>
<path d="M13.4367 5.00121C13.5034 5.00115 13.5701 5.00061 13.6368 5.00004C14.828 4.9953 16.0269 5.4506 16.9013 6.26578C16.9212 6.28429 16.9412 6.30281 16.9618 6.32188C17.2751 6.61557 17.5415 6.9208 17.7697 7.28498C17.7882 7.31433 17.7882 7.31433 17.8071 7.34429C18.4801 8.43074 18.7033 9.78081 18.4165 11.0259C18.2323 11.7613 17.9406 12.4419 17.4702 13.0404C17.4492 13.0681 17.4282 13.0958 17.4065 13.1243C16.5567 14.2084 15.3317 14.8105 13.9813 14.9766C12.7254 15.1065 11.4154 14.688 10.4382 13.8954C10.3141 13.7931 10.193 13.6878 10.0736 13.58C10.0512 13.5598 10.0288 13.5395 10.0056 13.5187C9.09925 12.6538 8.57974 11.3422 8.54005 10.1062C8.51104 8.75204 8.99478 7.51728 9.92388 6.53557C9.95059 6.50689 9.9773 6.47822 10.0048 6.44868C10.8789 5.52927 12.1777 5.00108 13.4367 5.00121Z" fill="#020203"/>
<path d="M21.1057 3.0132C21.207 3.08279 21.2921 3.16629 21.3793 3.25259C21.399 3.27106 21.4188 3.28953 21.4391 3.30856C21.5882 3.45113 21.7156 3.60874 21.8448 3.76929C21.9262 3.86788 22.0108 3.96221 22.0974 4.05623C22.2381 4.20909 22.37 4.3671 22.5004 4.52872C22.5747 4.61868 22.6515 4.70528 22.7301 4.79148C22.8641 4.93852 22.9897 5.09102 23.1148 5.24566C23.2139 5.36538 23.3183 5.47965 23.423 5.59445C23.5005 5.68171 23.5739 5.7713 23.647 5.86229C23.78 6.02689 23.9211 6.18153 24.0657 6.33588C24.1998 6.47994 24.3243 6.63007 24.4476 6.78362C24.5329 6.88653 24.6225 6.98489 24.7135 7.08271C24.8323 7.21038 24.9461 7.34 25.0555 7.47598C25.1963 7.65082 25.3459 7.81542 25.4983 7.98C25.642 8.13557 25.7803 8.29548 25.9175 8.45676C26.0852 8.65364 26.2538 8.84889 26.4298 9.03838C26.5774 9.1979 26.7174 9.36157 26.8526 9.53171C26.9153 9.61132 26.9153 9.61132 26.9763 9.67037C27.0727 9.76674 27.1057 9.84847 27.118 9.98095C27.1046 10.2116 26.9669 10.3391 26.8167 10.5025C26.7836 10.541 26.7507 10.5796 26.7179 10.6184C26.5636 10.8013 26.407 10.9816 26.246 11.1586C26.143 11.2719 26.045 11.3878 25.9489 11.507C25.823 11.6627 25.6907 11.81 25.5544 11.9564C25.4244 12.097 25.3037 12.2439 25.1836 12.3931C25.0766 12.5224 24.9627 12.6448 24.8491 12.7682C24.7673 12.8593 24.6898 12.9527 24.6131 13.048C24.5029 13.1847 24.3884 13.3151 24.2689 13.4435C24.1217 13.6018 23.9836 13.7654 23.8479 13.9338C23.7482 14.0551 23.6433 14.171 23.5377 14.287C23.4728 14.3585 23.409 14.4307 23.3456 14.5036C23.2572 14.6053 23.167 14.7053 23.0763 14.8049C22.9693 14.9234 22.8667 15.0441 22.7664 15.1683C22.6342 15.3317 22.4946 15.4866 22.3523 15.6412C22.2726 15.73 22.1975 15.821 22.1231 15.9142C21.975 16.0978 21.8158 16.2691 21.6539 16.4404C21.5472 16.5534 21.4431 16.6673 21.3429 16.7863C21.2609 16.8803 21.1905 16.9542 21.0715 17C20.887 16.9914 20.7862 16.915 20.6547 16.7948C20.6155 16.7602 20.5762 16.7257 20.5369 16.6912C20.5078 16.6653 20.5078 16.6653 20.4781 16.6389C20.3978 16.5687 20.3147 16.5023 20.2315 16.4357C20.0584 16.2949 19.8945 16.1457 19.731 15.994C19.6488 15.9183 19.5657 15.8442 19.4813 15.771C19.4496 15.7428 19.4496 15.7428 19.4172 15.714C19.3584 15.662 19.3584 15.662 19.2761 15.6065C19.1992 15.4911 19.1937 15.3911 19.1982 15.2539C19.2507 15.0552 19.4174 14.9425 19.5668 14.8114C19.6076 14.7673 19.6476 14.7225 19.6865 14.6767C19.7797 14.5677 19.8757 14.4617 19.9729 14.3561C20.1139 14.2016 20.2466 14.0422 20.3779 13.8795C20.4854 13.7499 20.5995 13.6271 20.7135 13.5033C20.796 13.4114 20.8742 13.3173 20.9518 13.2212C21.0562 13.0917 21.164 12.9674 21.2767 12.845C21.4141 12.6955 21.5434 12.5414 21.671 12.3835C21.8246 12.1966 21.9847 12.0152 22.1435 11.8328C22.3638 11.5791 22.5817 11.3234 22.7985 11.0667C22.9312 10.9096 23.0644 10.7528 23.1981 10.5965C23.2152 10.5764 23.2323 10.5564 23.2499 10.5357C23.3716 10.3933 23.4977 10.2559 23.6284 10.1218C23.6769 10.0615 23.6769 10.0615 23.6688 9.99218C23.6252 9.89681 23.5669 9.82616 23.4995 9.74585C23.4716 9.71261 23.4438 9.67937 23.4151 9.64512C23.3111 9.52474 23.2046 9.40682 23.0974 9.28926C23.0192 9.20122 22.945 9.11087 22.8711 9.01915C22.7453 8.86345 22.6129 8.71619 22.4766 8.56973C22.3466 8.42915 22.2259 8.28227 22.1058 8.13308C22.026 8.03659 21.9428 7.94429 21.858 7.85216C21.7173 7.6993 21.5854 7.54129 21.455 7.37967C21.3808 7.28971 21.3039 7.20311 21.2254 7.11691C21.1195 7.00078 21.0184 6.88226 20.9197 6.75997C20.7877 6.59672 20.6483 6.44206 20.5062 6.28762C20.3968 6.16581 20.2947 6.03881 20.192 5.91145C20.1116 5.81463 20.0281 5.72186 19.943 5.62932C19.8011 5.4751 19.6671 5.31636 19.5366 5.15242C19.4667 5.06529 19.4667 5.06529 19.3918 4.99265C19.277 4.87782 19.2069 4.78947 19.1885 4.62476C19.2032 4.42065 19.3286 4.31723 19.4743 4.18594C19.5049 4.16006 19.5354 4.13419 19.5668 4.10753C19.5998 4.0777 19.5998 4.0777 19.6336 4.04728C19.7015 3.98631 19.7709 3.92729 19.8404 3.86814C19.8759 3.83727 19.9115 3.80636 19.947 3.77544C20.871 2.97335 20.871 2.97335 21.1057 3.0132Z" fill="#030203"/>
<path d="M42.876 15.5H41.251V5.67188H37.8994V4.22656H46.2275V5.67188H42.876V15.5ZM51.1541 15.6641C48.8572 15.6641 47.3963 14.1953 47.3963 11.8906V10.6016C47.3963 8.28906 48.8572 6.82812 51.1541 6.82812C53.451 6.82812 54.9119 8.28906 54.9119 10.6016V11.8906C54.9119 14.1953 53.451 15.6641 51.1541 15.6641ZM51.1541 8.15625C49.7947 8.15625 48.9432 9.13281 48.9432 10.7109V11.7812C48.9432 13.3594 49.7947 14.3359 51.1541 14.3359C52.5135 14.3359 53.365 13.3594 53.365 11.7812V10.7109C53.365 9.13281 52.5135 8.15625 51.1541 8.15625ZM58.9244 10.6953L62.4088 6.98438H64.2682L61.0104 10.4062L64.4947 15.5H62.651L59.8775 11.4297L58.8072 12.4766V15.5H57.2447V3.66406H58.8072V10.6953H58.9244ZM71.4994 13.25H72.9994C72.7729 14.6797 71.3666 15.6641 69.5307 15.6641C67.14 15.6641 65.7729 14.2578 65.7729 11.8359V10.5391C65.7729 8.29688 67.2338 6.82031 69.4447 6.82031C71.6713 6.82031 73.0229 8.28906 73.0229 10.7109V11.6328H67.3119V12.0156C67.3119 13.4531 68.1791 14.375 69.5229 14.375C70.5307 14.375 71.2885 13.9453 71.4994 13.25ZM69.4291 8.10156C68.1088 8.10156 67.3119 9.00781 67.3119 10.5312H71.4838C71.4838 9.01562 70.7182 8.10156 69.4291 8.10156ZM74.8479 15.5V6.98438H76.3635V8.46875H76.4729C76.9182 7.41406 77.8791 6.82031 79.1525 6.82031C81.0041 6.82031 82.0041 7.92969 82.0041 9.97656V15.5H80.4338V10.3672C80.4338 8.90625 79.8479 8.21875 78.59 8.21875C77.2854 8.21875 76.4104 9.13281 76.4104 10.5078V15.5H74.8479ZM87.6572 4.99219C86.9619 4.99219 86.4463 4.50781 86.4463 3.83594C86.4463 3.15625 86.9619 2.67188 87.6572 2.67188C88.3604 2.67188 88.8682 3.15625 88.8682 3.83594C88.8682 4.50781 88.3604 4.99219 87.6572 4.99219ZM91.251 15.5H84.1025V14.2344H86.9697V8.25H84.165V6.98438H88.501V14.2344H91.251V15.5ZM93.2322 15.5V14.4688L98.0604 8.39844V8.28125H93.2635V6.98438H99.9354V8.09375L95.2322 14.0859V14.2031H99.9822V15.5H93.2322ZM107.862 13.25H109.362C109.135 14.6797 107.729 15.6641 105.893 15.6641C103.503 15.6641 102.135 14.2578 102.135 11.8359V10.5391C102.135 8.29688 103.596 6.82031 105.807 6.82031C108.034 6.82031 109.385 8.28906 109.385 10.7109V11.6328H103.674V12.0156C103.674 13.4531 104.542 14.375 105.885 14.375C106.893 14.375 107.651 13.9453 107.862 13.25ZM105.792 8.10156C104.471 8.10156 103.674 9.00781 103.674 10.5312H107.846C107.846 9.01562 107.081 8.10156 105.792 8.10156ZM114.507 11.7031V14.2969H117.093V15.5H111.296V14.2969H112.984V8.1875H111.132V6.98438H114.499V9.15625H114.718C115.054 7.55469 116.046 6.76562 117.679 6.76562C118.163 6.76562 118.624 6.82812 118.906 6.94531V8.66406C118.523 8.52344 117.968 8.42188 117.499 8.42188C115.578 8.42188 114.507 9.61719 114.507 11.7031ZM131.11 9.85938C131.11 7.14062 131.938 4.77344 133.517 2.99219H135.103C133.462 5.34375 132.782 7.35938 132.782 9.85938C132.782 12.3672 133.462 14.375 135.103 16.7266H133.517C131.938 14.9453 131.11 12.5781 131.11 9.85938ZM142.334 15.5H138.482V4.22656H142.279C144.388 4.22656 145.646 5.27344 145.646 7.01562C145.646 8.25781 144.834 9.28125 143.678 9.47656V9.59375C145.193 9.72656 146.209 10.8438 146.209 12.3359C146.209 14.3125 144.756 15.5 142.334 15.5ZM140.084 5.55469V9.03125H141.701C143.193 9.03125 144.013 8.41406 144.013 7.30469C144.013 6.1875 143.248 5.55469 141.881 5.55469H140.084ZM140.084 14.1562H141.928C143.646 14.1562 144.521 13.5078 144.521 12.2109C144.521 10.9531 143.623 10.3047 141.888 10.3047H140.084V14.1562ZM147.635 4.22656H151.495C153.737 4.22656 155.198 5.67188 155.198 7.90625C155.198 10.1328 153.713 11.5781 151.448 11.5781H149.268V15.5H147.635V4.22656ZM149.268 5.61719V10.1953H151.096C152.682 10.1953 153.542 9.39062 153.542 7.90625C153.542 6.41406 152.682 5.61719 151.096 5.61719H149.268ZM163.804 14.0547V15.5H157.023V4.22656H163.804V5.67188H158.656V9.08594H163.515V10.4453H158.656V14.0547H163.804ZM171.192 9.85938C171.192 12.5781 170.363 14.9453 168.785 16.7266H167.199C168.84 14.375 169.52 12.3672 169.52 9.85938C169.52 7.35938 168.84 5.34375 167.199 2.99219H168.785C170.363 4.77344 171.192 7.14062 171.192 9.85938Z" fill="black"/>
</svg>
